<svg xmlns="http://www.w3.org/2000/svg" width="180" height="180" viewBox="0 0 512 512">
  <rect width="512" height="512" rx="0" fill="#ffffff"/>
  <g transform="translate(256, 256)">
    <!-- Fork -->
    <g transform="rotate(-45)">
      <path d="M10,-30 C10,-60 42,-80 42,-100 L42,-200 A 6 6 0 0 0 30 -200 L30,-130 A 6 6 0 0 1 18 -130 L18,-200 A 6 6 0 0 0 6 -200 L6,-130 A 6 6 0 0 1 -6 -130 L-6,-200 A 6 6 0 0 0 -18 -200 L-18,-130 A 6 6 0 0 1 -30 -130 L-30,-200 A 6 6 0 0 0 -42 -200 L-42,-100 C-42,-80 -10,-60 -10,-30 L-10,80 A 10 10 0 0 0 10 80 Z" fill="#ffffff" stroke="#000000" stroke-width="20" stroke-linejoin="round"/>
    </g>
    <!-- Spoon Mask -->
    <g transform="rotate(45)">
      <path d="M-10,-30 L-10,80 A 10 10 0 0 0 10 80 L10,-30 C10,-60 36,-90 36,-150 C36,-200 18,-230 0,-230 C-18,-230 -36,-200 -36,-150 C-36,-90 -10,-60 -10,-30 Z" fill="#ffffff" stroke="#ffffff" stroke-width="60" stroke-linejoin="round"/>
    </g>
    <!-- Spoon -->
    <g transform="rotate(45)">
      <path d="M-10,-30 L-10,80 A 10 10 0 0 0 10 80 L10,-30 C10,-60 36,-90 36,-150 C36,-200 18,-230 0,-230 C-18,-230 -36,-200 -36,-150 C-36,-90 -10,-60 -10,-30 Z" fill="#ffffff" stroke="#000000" stroke-width="20" stroke-linejoin="round"/>
    </g>
  </g>
</svg>
