<svg xmlns="http://www.w3.org/2000/svg" width="180" height="180" viewBox="0 0 180 180">
  <rect width="180" height="180" rx="36" fill="white"/>
  <rect x="3" y="3" width="174" height="174" rx="33" fill="white" stroke="#111" stroke-width="2"/>
  <g transform="translate(90, 90)">
    <!-- Fork (rotated -35deg) -->
    <g transform="rotate(-35)">
      <rect x="-4" y="7" width="8" height="56" rx="4" fill="#111"/>
      <rect x="-4" y="-49" width="8" height="35" rx="3" fill="#111"/>
      <rect x="-11" y="-62" width="3" height="28" rx="1.5" fill="#111"/>
      <rect x="-4" y="-62" width="3" height="28" rx="1.5" fill="#111"/>
      <rect x="3" y="-62" width="3" height="28" rx="1.5" fill="#111"/>
      <rect x="10" y="-62" width="3" height="28" rx="1.5" fill="#111"/>
      <rect x="-12" y="-36" width="27" height="4" rx="2" fill="#111"/>
    </g>
    <!-- Knife (rotated +35deg) -->
    <g transform="rotate(35)">
      <rect x="-4" y="7" width="8" height="56" rx="4" fill="#111"/>
      <path d="M-5,-56 Q-6,-14 -4,7 L4,7 Q6,-14 5,-56 Q5,-62 0,-64 Q-5,-62 -5,-56Z" fill="#111"/>
    </g>
  </g>
</svg>
