<svg xmlns="http://www.w3.org/2000/svg" width="180" height="180" viewBox="0 0 512 512">
  <!-- Premium Dark Charcoal Background -->
  <rect width="512" height="512" rx="0" fill="#111111"/>
  
  <!-- Subtle Elegant Inner Border -->
  <rect x="16" y="16" width="480" height="480" rx="0" fill="none" stroke="#ffffff" stroke-width="3" opacity="0.1"/>

  <g transform="translate(256, 256)">
    <!-- Fork (Rotated -45deg) -->
    <g transform="rotate(-45)">
      <path d="M -5,30 L -5,150 C -5,158 5,158 5,150 L 5,30 C 5,10 25,-10 25,-40 L 25,-120 C 25,-126 15,-126 15,-120 L 15,-70 C 15,-76 5,-76 5,-70 L 5,-120 C 5,-126 -5,-126 -5,-120 L -5,-70 C -5,-76 -15,-76 -15,-70 L -15,-120 C -15,-126 -25,-126 -25,-120 L -25,-40 C -25,-10 -5,10 -5,30 Z" fill="#ffffff"/>
    </g>
    
    <!-- Knife Cutout / Mask (Same path as knife but thick dark stroke) -->
    <g transform="rotate(45)">
      <path d="M -5,30 L -5,150 C -5,158 5,158 5,150 L 5,30 C 5,10 16,0 16,-20 L 16,-100 C 16,-130 5,-145 -5,-145 L -5,30 Z" fill="#111111" stroke="#111111" stroke-width="24" stroke-linejoin="round"/>
    </g>
    
    <!-- Knife (Rotated 45deg) -->
    <g transform="rotate(45)">
      <path d="M -5,30 L -5,150 C -5,158 5,158 5,150 L 5,30 C 5,10 16,0 16,-20 L 16,-100 C 16,-130 5,-145 -5,-145 L -5,30 Z" fill="#ffffff"/>
    </g>
  </g>
</svg>
