<svg xmlns="http://www.w3.org/2000/svg" width="512" height="512" viewBox="0 0 512 512">
  <rect width="512" height="512" rx="112" fill="#ffffff"/>
  <g transform="translate(256, 256)">
    <!-- Fork -->
    <g transform="rotate(-45)">
      <!-- Handle -->
      <rect x="-12" y="20" width="24" height="110" rx="12" fill="#111111"/>
      <!-- Sweeping neck -->
      <path d="M-30,-50 C-30,-10 -12,-10 -12,20 L12,20 C12,-10 30,-10 30,-50 Z" fill="#111111"/>
      <!-- Tines -->
      <rect x="-30" y="-130" width="12" height="90" rx="6" fill="#111111"/>
      <rect x="-6" y="-130" width="12" height="90" rx="6" fill="#111111"/>
      <rect x="18" y="-130" width="12" height="90" rx="6" fill="#111111"/>
    </g>
    <!-- Knife (On Top) -->
    <g transform="rotate(45)">
      <!-- Cutout Outline to create visual separation -->
      <rect x="-18" y="14" width="36" height="122" rx="18" fill="#ffffff"/>
      <path d="M-18,20 V-120 Q-18,-146 0,-146 Q18,-146 18,-100 V20 Z" fill="#ffffff"/>
      <!-- Actual Knife -->
      <rect x="-12" y="20" width="24" height="110" rx="12" fill="#111111"/>
      <path d="M-12,20 V-120 Q-12,-140 0,-140 Q12,-140 12,-100 V20 Z" fill="#111111"/>
    </g>
  </g>
</svg>
